<svg width="560" height="160" viewBox="0 0 560 160" fill="none" xmlns="http://www.w3.org/2000/svg">
<path d="M193.567 88.9725C188.8 86.3373 186.291 84.2039 186.291 81.1922C186.291 77.302 189.678 74.9176 195.072 74.9176C201.344 74.9176 206.864 77.5529 206.864 77.5529L211.255 64.1255C211.255 64.1255 207.24 60.9882 195.323 60.9882C178.764 60.9882 167.222 70.5255 167.222 83.8274C167.222 91.3569 172.617 97.1294 179.767 101.271C185.538 104.533 187.545 106.918 187.545 110.306C187.545 113.945 184.66 116.831 179.265 116.831C171.237 116.831 163.71 112.69 163.71 112.69L159.068 126.118C159.068 126.118 166.093 130.761 177.76 130.761C194.821 130.761 206.989 122.353 206.989 107.294C207.24 99.0118 200.968 93.2392 193.567 88.9725ZM261.559 60.7373C253.154 60.7373 246.631 64.7529 241.488 70.7765L241.237 70.651L248.513 32.502H229.57L211.129 129.506H230.072L236.344 96.3765C238.853 83.8274 245.251 76.1726 251.273 76.1726C255.538 76.1726 257.169 79.0588 257.169 83.2C257.169 85.8353 256.918 88.9725 256.291 91.6078L249.14 129.631H268.083L275.484 90.4784C276.362 86.3373 276.864 81.4431 276.864 78.0549C276.989 67.1373 271.344 60.7373 261.559 60.7373ZM319.893 60.7373C297.061 60.7373 281.882 81.3176 281.882 104.282C281.882 118.965 290.914 130.886 307.975 130.886C330.43 130.886 345.484 110.808 345.484 87.3412C345.609 73.6627 337.706 60.7373 319.893 60.7373ZM310.609 116.204C304.086 116.204 301.452 110.682 301.452 103.78C301.452 92.8627 307.097 75.1686 317.384 75.1686C324.158 75.1686 326.29 80.9412 326.29 86.5882C326.29 98.3843 320.645 116.204 310.609 116.204ZM394.158 60.7373C381.362 60.7373 374.086 72.0314 374.086 72.0314H373.835L374.964 61.8667H358.154C357.276 68.7686 355.771 79.1843 354.265 87.0902L341.093 156.612H360.036L365.305 128.502H365.681C365.681 128.502 369.57 131.012 376.846 131.012C399.176 131.012 413.728 108.173 413.728 85.0823C413.728 72.1569 408.082 60.7373 394.158 60.7373ZM376.093 116.58C371.201 116.58 368.316 113.82 368.316 113.82L371.452 96.1255C373.71 84.3294 379.857 76.4235 386.38 76.4235C392.151 76.4235 393.907 81.8196 393.907 86.8392C393.907 99.0118 386.631 116.58 376.093 116.58ZM440.824 33.3804C434.803 33.3804 429.91 38.149 429.91 44.4235C429.91 50.0706 433.423 53.9608 438.817 53.9608H439.068C444.964 53.9608 450.108 49.9451 450.233 42.9176C450.358 37.3961 446.595 33.3804 440.824 33.3804Z" fill="white"/>
<path d="M414.229 129.506H433.298L446.219 62.2432H427.025L414.229 129.506Z" fill="white"/>
<path d="M494.391 61.9922H481.219L481.846 58.8549C482.975 52.3294 486.739 46.5569 493.136 46.5569C496.524 46.5569 499.158 47.5608 499.158 47.5608L502.921 32.753C502.921 32.753 499.66 31.1216 492.635 31.1216C485.86 31.1216 479.212 33.0039 474.068 37.3961C467.545 42.9177 464.534 50.8236 463.029 58.8549L462.527 61.9922H453.746L450.986 76.2981H459.767L449.731 129.38H468.674L478.71 76.2981H491.757L494.391 61.9922ZM540.054 62.2432C540.054 62.2432 528.136 92.1098 522.868 108.424H522.617C522.24 103.153 517.975 62.2432 517.975 62.2432H498.029L509.445 123.984C509.696 125.365 509.57 126.243 509.068 127.122C506.81 131.388 503.172 135.529 498.782 138.541C495.269 141.177 491.255 142.808 488.119 143.937L493.387 160C497.276 159.122 505.179 155.984 511.954 149.71C520.61 141.553 528.638 129.129 536.792 112.063L560 62.2432H540.054Z" fill="white"/>
<path d="M90.3226 155.984L137.24 145.82C137.24 145.82 120.305 31.2471 120.179 30.4941C120.054 29.7412 119.427 29.2392 118.799 29.2392C118.172 29.2392 106.255 28.3608 106.255 28.3608C106.255 28.3608 97.9749 20.0784 96.9714 19.2C96.7205 18.949 96.4696 18.8236 96.2187 18.6981L90.3226 155.984ZM94.2115 18.4471C94.0861 18.4471 93.8351 18.5726 93.7097 18.5726C93.5842 18.5726 91.828 19.0745 89.0681 19.953C86.3083 11.9216 81.4158 4.51766 72.7599 4.51766C72.509 4.51766 72.2581 4.51766 72.0072 4.51766C69.4982 1.3804 66.4875 0 63.8531 0C43.6559 0 33.9964 25.2235 30.9857 38.0236C23.2079 40.4079 17.5627 42.1647 16.9355 42.4157C12.5448 43.7961 12.4194 43.9216 11.9176 48.0628C11.4158 51.0745 0 139.545 0 139.545L88.19 156.11L94.2115 18.4471ZM71.2545 24.5961C71.2545 24.8471 71.2545 25.2235 71.2545 25.4745C66.362 26.9804 60.9678 28.6118 55.6989 30.2432C58.7097 18.6981 64.3549 13.051 69.2473 10.9177C70.5018 14.1804 71.2545 18.5726 71.2545 24.5961ZM63.2258 5.39609C64.104 5.39609 64.9821 5.64706 65.8602 6.27451C59.4624 9.28628 52.4373 16.9412 49.552 32.251C45.2867 33.6314 41.147 34.8863 37.2581 36.0157C40.6452 24.3451 48.7993 5.39609 63.2258 5.39609ZM66.7384 73.5373C66.7384 73.5373 61.4695 70.7765 55.1971 70.7765C45.7885 70.7765 45.4122 76.6746 45.4122 78.1804C45.4122 86.2118 66.4875 89.3491 66.4875 108.298C66.4875 123.231 57.0789 132.769 44.2832 132.769C28.9785 132.769 21.2007 123.231 21.2007 123.231L25.3405 109.679C25.3405 109.679 33.3692 116.58 40.1434 116.58C44.5341 116.58 46.4158 113.067 46.4158 110.557C46.4158 100.016 29.1039 99.5138 29.1039 82.1961C29.1039 67.6393 39.5161 53.4589 60.7169 53.4589C68.871 53.4589 72.8853 55.8432 72.8853 55.8432L66.7384 73.5373ZM74.767 10.0392C79.2832 10.5412 82.1685 15.6863 84.0502 21.4588C81.7921 22.2118 79.2832 22.9647 76.5233 23.8432C76.5233 23.3412 76.5233 22.8392 76.5233 22.2118C76.5233 17.3177 75.8961 13.302 74.767 10.0392Z" fill="white"/>
</svg>
