<svg width="351" height="160" viewBox="0 0 351 160" fill="none" xmlns="http://www.w3.org/2000/svg">
<path d="M306.717 146.059V142.318H309.452C311.272 142.318 311.765 142.882 311.765 143.976C311.765 145.096 311.272 145.998 309.128 146.059H306.717ZM308.636 148.342C309.422 148.412 310.179 148.342 310.749 148.941C311.402 149.636 311.402 150.799 311.566 152.057C311.669 152.917 311.899 153.845 312.063 154.67H314.967C314.47 153.351 314.306 151.823 314.107 150.434C313.874 148.845 313.648 147.952 311.635 147.552V147.483C313.584 147.084 314.604 145.764 314.604 144.071C314.604 140.764 311.829 140.035 309.162 140.035H304.443V154.67H306.717V148.342H308.636ZM309.358 160C316.225 160 321.726 154.444 321.726 147.517C321.726 140.66 316.225 135.096 309.358 135.096C302.464 135.096 296.924 140.66 296.924 147.517C296.924 154.444 302.464 160 309.358 160ZM309.358 157.821C303.687 157.821 299.107 153.212 299.107 147.517C299.107 141.892 303.687 137.283 309.358 137.283C315.002 137.283 319.556 141.892 319.556 147.517C319.556 153.212 315.002 157.821 309.358 157.821Z" fill="white"/>
<path d="M288.393 34.2947H268.475V54.2773H288.393C293.12 54.2773 296.924 58.1444 296.924 62.8644C296.924 67.6173 293.12 71.4365 288.393 71.4365H268.475V91.4365H288.393C304.111 91.4365 316.843 78.6373 316.843 62.8644C316.843 47.0876 304.111 34.2947 288.393 34.2947ZM174.881 140.035C198.724 140.035 219.273 126.011 228.872 105.716H254.261V140.035H268.475V105.716H288.393C311.976 105.716 331.082 86.528 331.082 62.8644C331.082 39.1951 311.976 20 288.393 20H254.261V71.4365H234.005C229.874 42.3676 204.977 20 174.881 20H104.836L35.1608 140.035H51.782L71.6961 105.716H143.298V140.035H174.881ZM351 62.8644C351 97.5782 322.966 125.716 288.393 125.716V160H234.351V133.255C219.731 149.67 198.525 160 174.881 160H123.381V125.716H83.129L63.2149 160H0L92.9196 -7.62939e-06H174.881C198.525 -7.62939e-06 219.731 10.3583 234.351 26.7752V-7.62939e-06H288.393C322.966 -7.62939e-06 351 28.16 351 62.8644ZM123.381 34.2947V71.4365H91.6102L80.0063 91.4365H143.298V34.2947H123.381ZM220.414 80C220.414 105.252 200.02 125.716 174.881 125.716H157.521V105.716H174.881C189.035 105.716 200.504 94.2187 200.504 80C200.504 65.8116 189.035 54.2773 174.881 54.2773H157.521V34.2947H174.881C200.02 34.2947 220.414 54.7591 220.414 80Z" fill="white"/>
<path d="M288.393 34.2947H268.475V54.2773H288.393C293.12 54.2773 296.924 58.1444 296.924 62.8644C296.924 67.6173 293.12 71.4365 288.393 71.4365H268.475V91.4365H288.393C304.111 91.4365 316.843 78.6373 316.843 62.8644C316.843 47.0876 304.111 34.2947 288.393 34.2947ZM174.881 140.035C198.724 140.035 219.273 126.011 228.872 105.716H254.261V140.035H268.475V105.716H288.393C311.976 105.716 331.082 86.528 331.082 62.8644C331.082 39.1951 311.976 20 288.393 20H254.261V71.4365H234.005C229.874 42.3676 204.977 20 174.881 20H104.836L35.1608 140.035H51.782L71.6961 105.716H143.298V140.035H174.881ZM351 62.8644C351 97.5782 322.966 125.716 288.393 125.716V160H234.351V133.255C219.731 149.67 198.525 160 174.881 160H123.381V125.716H83.129L63.2149 160H0L92.9196 -7.62939e-06H174.881C198.525 -7.62939e-06 219.731 10.3583 234.351 26.7752V-7.62939e-06H288.393C322.966 -7.62939e-06 351 28.16 351 62.8644ZM123.381 34.2947V71.4365H91.6102L80.0063 91.4365H143.298V34.2947H123.381ZM220.414 80C220.414 105.252 200.02 125.716 174.881 125.716H157.521V105.716H174.881C189.035 105.716 200.504 94.2187 200.504 80C200.504 65.8116 189.035 54.2773 174.881 54.2773H157.521V34.2947H174.881C200.02 34.2947 220.414 54.7591 220.414 80Z" fill="white"/>
<path d="M288.393 34.2947H268.475V54.2773H288.393C293.12 54.2773 296.924 58.1444 296.924 62.8644C296.924 67.6173 293.12 71.4365 288.393 71.4365H268.475V91.4365H288.393C304.111 91.4365 316.843 78.6373 316.843 62.8644C316.843 47.0876 304.111 34.2947 288.393 34.2947ZM174.881 140.035C198.724 140.035 219.273 126.011 228.872 105.716H254.261V140.035H268.475V105.716H288.393C311.976 105.716 331.082 86.528 331.082 62.8644C331.082 39.1951 311.976 20 288.393 20H254.261V71.4365H234.005C229.874 42.3676 204.977 20 174.881 20H104.836L35.1608 140.035H51.782L71.6961 105.716H143.298V140.035H174.881ZM351 62.8644C351 97.5782 322.966 125.716 288.393 125.716V160H234.351V133.255C219.731 149.67 198.525 160 174.881 160H123.381V125.716H83.129L63.2149 160H0L92.9196 -7.62939e-06H174.881C198.525 -7.62939e-06 219.731 10.3583 234.351 26.7752V-7.62939e-06H288.393C322.966 -7.62939e-06 351 28.16 351 62.8644ZM123.381 34.2947V71.4365H91.6102L80.0063 91.4365H143.298V34.2947H123.381ZM220.414 80C220.414 105.252 200.02 125.716 174.881 125.716H157.521V105.716H174.881C189.035 105.716 200.504 94.2187 200.504 80C200.504 65.8116 189.035 54.2773 174.881 54.2773H157.521V34.2947H174.881C200.02 34.2947 220.414 54.7591 220.414 80Z" fill="white"/>
</svg>
